<svg xmlns="http://www.w3.org/2000/svg" viewBox="0 0 64 64" role="img" aria-label="Pinchos Caña">
  <rect width="64" height="64" rx="14" fill="#EBD8CA" />
  <circle cx="32" cy="32" r="27" fill="none" stroke="#1E1817" stroke-width="2.5" />
  <circle cx="32" cy="32" r="22.5" fill="none" stroke="#CE8674" stroke-width="2" />
  <!-- llama -->
  <path
    d="M32 12c1.8 5.4-2.2 7.6-2.2 11.6 0 2 1.3 3.3 1.3 3.3s-3.2-.6-3.2-3.6c-2.6 2.3-4.2 5.2-4.2 8.6 0 5.9 4.6 9.9 10.3 9.9s10.3-4 10.3-10.2c0-7-6.6-9.9-6.6-14.3-2 1.2-2.6 3.4-2.6 3.4S37.6 15.9 32 12Z"
    fill="#1E1817"
  />
  <!-- parrilla -->
  <rect x="17" y="43" width="30" height="3.4" rx="1.7" fill="#1E1817" />
  <path d="M21 48.5h22l-1.6 5.2h-18.8Z" fill="#1E1817" />
</svg>
